<svg width="34" height="22" viewBox="0 0 34 22" fill="none" xmlns="http://www.w3.org/2000/svg">
<path d="M32.4893 21.099L32.4893 21.0991C32.6205 21.0081 32.7324 20.8919 32.8183 20.7573L33.1117 20.9446L32.8183 20.7573C32.9043 20.6227 32.9626 20.4723 32.99 20.3149C33.0173 20.1576 33.0131 19.9964 32.9775 19.8407L33.3168 19.7632L32.9775 19.8407C32.942 19.6849 32.8759 19.5379 32.783 19.4079L32.7814 19.4058C31.4743 17.5478 29.6934 16.0739 27.6238 15.1374L27.1191 14.909L27.5439 14.5534C28.8037 13.4989 29.7079 12.0818 30.1334 10.495C30.5589 8.90816 30.485 7.22877 29.9218 5.68544C29.3586 4.14212 28.3335 2.80987 26.986 1.87008C25.6384 0.930286 24.034 0.428625 22.3911 0.433396L22.3895 0.4334C21.6584 0.432182 20.9307 0.533135 20.2275 0.733328L20.2213 0.735106L20.2213 0.735047C20.0651 0.776379 19.9187 0.848369 19.7906 0.946825C19.6625 1.04528 19.5553 1.16824 19.4751 1.30853C19.395 1.44883 19.3436 1.60367 19.3239 1.76402C19.3042 1.92438 19.3166 2.08706 19.3603 2.24258C19.4041 2.39811 19.4784 2.54337 19.5788 2.66992L19.3062 2.88629L19.5788 2.66992C19.6792 2.79647 19.8039 2.90177 19.9454 2.9797L19.7775 3.28457L19.9454 2.9797C20.0869 3.05762 20.2425 3.10662 20.4032 3.12383C20.5638 3.14103 20.7263 3.12611 20.8811 3.07993L20.8851 3.07874L20.8851 3.07876C21.3748 2.93907 21.8816 2.86868 22.3908 2.86964M32.4893 21.099L22.3901 3.21768M32.4893 21.099L32.4852 21.1019C32.2821 21.2472 32.0384 21.3249 31.7887 21.3242C31.5933 21.323 31.4011 21.2753 31.2278 21.1852C31.0546 21.095 30.9053 20.965 30.7923 20.8058M32.4893 21.099L30.508 21.0066M22.3908 2.86964L22.3901 3.21768M22.3908 2.86964C22.3906 2.86964 22.3903 2.86964 22.3901 2.86964V3.21768M22.3908 2.86964C23.8674 2.86981 25.2835 3.45648 26.3277 4.50063C27.372 5.54494 27.9587 6.96132 27.9587 8.4382C27.9587 9.91507 27.372 11.3315 26.3277 12.3758C25.2834 13.4201 23.867 14.0068 22.3901 14.0068C22.0671 14.0068 21.7572 14.1351 21.5288 14.3635C21.3003 14.592 21.172 14.9018 21.172 15.2249C21.172 15.5479 21.3003 15.8578 21.5288 16.0862C21.7572 16.3147 22.0671 16.443 22.3901 16.443H22.3905C24.0379 16.4448 25.6609 16.842 27.1229 17.6012C28.5848 18.3604 29.8432 19.4594 30.7923 20.8058M22.3901 3.21768C23.7747 3.21768 25.1026 3.76769 26.0816 4.74673C27.0606 5.72577 27.6106 7.05363 27.6106 8.4382C27.6106 9.82276 27.0606 11.1506 26.0816 12.1297C25.1026 13.1087 23.7747 13.6587 22.3901 13.6587C21.9748 13.6587 21.5764 13.8237 21.2827 14.1174C20.989 14.4111 20.824 14.8095 20.824 15.2249C20.824 15.6402 20.989 16.0386 21.2827 16.3323C21.5764 16.626 21.9748 16.791 22.3901 16.791C23.9818 16.7928 25.5499 17.1766 26.9625 17.9101C28.3751 18.6437 29.591 19.7056 30.508 21.0066M30.7923 20.8058C30.7922 20.8056 30.7921 20.8054 30.7919 20.8053L30.508 21.0066M30.7923 20.8058C30.7924 20.8059 30.7924 20.806 30.7925 20.8061L30.508 21.0066M16.9064 14.554L16.4836 14.9096L16.987 15.1374C19.0566 16.0739 20.8375 17.5478 22.1446 19.4058L22.1496 19.4129L22.1549 19.4197C22.2565 19.5498 22.3305 19.6991 22.3726 19.8587C22.4147 20.0183 22.4239 20.1847 22.3996 20.3479C22.3754 20.5112 22.3183 20.6678 22.2317 20.8083C22.1451 20.9488 22.0309 21.0702 21.896 21.1652C21.761 21.2602 21.6082 21.3268 21.4468 21.361C21.2853 21.3951 21.1186 21.3961 20.9568 21.3639C20.7949 21.3316 20.6413 21.2668 20.5053 21.1734C20.3692 21.08 20.2536 20.96 20.1653 20.8205L20.1609 20.8134L20.1561 20.8066C19.2089 19.4576 17.9509 18.3564 16.4883 17.5963C15.0257 16.8361 13.4016 16.4392 11.7533 16.4392C10.105 16.4392 8.48089 16.8361 7.01833 17.5963C5.55576 18.3564 4.29772 19.4576 3.35056 20.8066L3.34978 20.8077C3.23844 20.9676 3.08999 21.0981 2.91715 21.1881C2.7443 21.278 2.55222 21.3247 2.35737 21.3242L2.35524 21.3242C2.10535 21.325 1.86152 21.2473 1.65822 21.1019L1.65654 21.1008C1.39303 20.9147 1.21405 20.6318 1.15886 20.314C1.10369 19.9963 1.17675 19.6697 1.362 19.4058C2.6691 17.5478 4.45004 16.0739 6.51966 15.1374L7.02298 14.9096L6.60022 14.554C5.34379 13.497 4.44277 12.0792 4.01932 10.4929C3.59586 8.90656 3.67046 7.22838 4.23298 5.68587C4.79551 4.14335 5.81876 2.81113 7.16401 1.86981C8.50926 0.928482 10.1114 0.423596 11.7533 0.423596C13.3952 0.423596 14.9974 0.928482 16.3426 1.86981C17.6879 2.81113 18.7111 4.14335 19.2736 5.68587C19.8362 7.22838 19.9108 8.90656 19.4873 10.4929C19.0638 12.0792 18.1628 13.497 16.9064 14.554ZM7.12323 5.34447C6.51135 6.26022 6.18476 7.33684 6.18476 8.4382C6.18476 9.91507 6.77144 11.3315 7.81575 12.3758C8.86006 13.4201 10.2764 14.0068 11.7533 14.0068C12.8547 14.0068 13.9313 13.6802 14.847 13.0683C15.7628 12.4564 16.4765 11.5867 16.898 10.5692C17.3195 9.55167 17.4297 8.43202 17.2149 7.35183C17 6.27163 16.4697 5.27941 15.6909 4.50063C14.9121 3.72186 13.9199 3.1915 12.8397 2.97664C11.7595 2.76177 10.6398 2.87205 9.62232 3.29352C8.6048 3.71499 7.73511 4.42873 7.12323 5.34447Z" fill="#4CAF4F" stroke="#4CAF4F" stroke-width="0.696069"/>
</svg>
