<svg width="24" height="28" viewBox="0 0 24 28" fill="none" xmlns="http://www.w3.org/2000/svg">
<path d="M23.111 26.4204V23.6362C23.111 22.1593 22.5243 20.7429 21.48 19.6986C20.4357 18.6543 19.0193 18.0676 17.5424 18.0676H16.1503C15.781 18.0676 15.4269 17.9209 15.1659 17.6599C14.9048 17.3988 14.7581 17.0447 14.7581 16.6755V9.71477C14.7581 8.97634 14.4648 8.26814 13.9426 7.74599C13.4205 7.22384 12.7123 6.93049 11.9738 6.93049C11.2354 6.93049 10.5272 7.22384 10.0051 7.74599C9.48291 8.26814 9.18956 8.97634 9.18956 9.71477V22.244L5.84843 17.7892C5.58908 17.4434 5.25279 17.1627 4.86618 16.9694C4.47956 16.7761 4.05325 16.6755 3.62101 16.6755H3.01682C1.81262 16.6755 0.836731 17.6514 0.836731 18.8556C0.836731 19.2509 0.943926 19.6393 1.14718 19.9776L5.01315 26.4204M11.9738 2.75408V1.36194V2.75408ZM20.3267 11.1069H21.7188H20.3267ZM2.22887 11.1069H3.62101H2.22887ZM5.49065 4.62372L4.50641 3.63948L5.49065 4.62372ZM18.457 4.62372L19.4413 3.63948L18.457 4.62372Z" fill="#4CAF4F"/>
<path d="M23.111 26.4204V23.6362C23.111 22.1593 22.5243 20.7429 21.48 19.6986C20.4357 18.6543 19.0193 18.0676 17.5424 18.0676H16.1503C15.781 18.0676 15.4269 17.9209 15.1659 17.6599C14.9048 17.3988 14.7581 17.0447 14.7581 16.6755V9.71477C14.7581 8.97634 14.4648 8.26814 13.9426 7.74599C13.4205 7.22384 12.7123 6.93049 11.9738 6.93049V6.93049C11.2354 6.93049 10.5272 7.22384 10.0051 7.74599C9.48291 8.26814 9.18956 8.97634 9.18956 9.71477V22.244L5.84843 17.7892C5.58908 17.4434 5.25279 17.1627 4.86618 16.9694C4.47956 16.7761 4.05325 16.6755 3.62101 16.6755H3.01682C1.81262 16.6755 0.836731 17.6514 0.836731 18.8556C0.836731 19.2509 0.943926 19.6393 1.14718 19.9776L5.01315 26.4204M11.9738 2.75408V1.36194M20.3267 11.1069H21.7188M2.22887 11.1069H3.62101M5.49065 4.62372L4.50641 3.63948M18.457 4.62372L19.4413 3.63948" stroke="#4CAF4F" stroke-width="1.39214" stroke-linecap="round" stroke-linejoin="round"/>
</svg>
